<svg xmlns="http://www.w3.org/2000/svg" width="75.71" height="105.061" viewBox="0 0 75.71 105.061">
  <g id="グループ_226" data-name="グループ 226" transform="matrix(-0.819, -0.574, 0.574, -0.819, 55.094, 105.061)">
    <path id="パス_91" data-name="パス 91" d="M46.876,1.942a1.234,1.234,0,0,1-.548.871,1.316,1.316,0,0,1-.275.131,1.338,1.338,0,0,1-.324.317,1.22,1.22,0,0,1-1.226.072l-1.212.908-.717.539a3.031,3.031,0,0,1-.782,1.946,1.367,1.367,0,0,1-.557.4c-.016.016-.027.037-.043.055a1.384,1.384,0,0,1-1.493.439,1.354,1.354,0,0,1-.431.491,1.222,1.222,0,0,1-1.227.071l-.123.092a1.5,1.5,0,0,1-.933,1.167l-.016.013a1.631,1.631,0,0,1-.581.435l-.933.7a2.9,2.9,0,0,1-.72,1.432,1.379,1.379,0,0,1-1.516.442c-.038-.015-.068-.045-.1-.063a3.252,3.252,0,0,1-.378.259,3.571,3.571,0,0,1-.764.546c-.016.03-.03.073-.048.1a1.427,1.427,0,0,1-.68.55,1.442,1.442,0,0,1-.169.183,1.525,1.525,0,0,1-.819.917l-.1.075-.026.02a1.339,1.339,0,0,1-.106.11,1.41,1.41,0,0,1-.528.866,1.345,1.345,0,0,1-.311.143,1.321,1.321,0,0,1-.285.305,1.365,1.365,0,0,1-1.136.241c-.044-.009-.1-.026-.143-.039,0,.049,0,.1,0,.145a1.372,1.372,0,0,1-.548,1.024,1.411,1.411,0,0,1-1.015.262l-.125.091-.1.074A1.5,1.5,0,0,1,24.7,18.8a1.413,1.413,0,0,1-.354.267,1.506,1.506,0,0,1-.311.205,1.513,1.513,0,0,1-.838.973l-.1.074-.123.1a1.421,1.421,0,0,1-.536.9,1.37,1.37,0,0,1-1.135.241c-.045-.01-.1-.027-.142-.039,0,.049,0,.1,0,.149a1.365,1.365,0,0,1-.551,1.02,1.282,1.282,0,0,1-.37.188,1.354,1.354,0,0,1-.226.261,1.412,1.412,0,0,1-.968.261,1.383,1.383,0,0,1-.168.089l-.1.074a1.49,1.49,0,0,1-1.161.535,1.33,1.33,0,0,1-.172.092,1.4,1.4,0,0,1-.722.515c-.029.009-.074.009-.108.017a3.5,3.5,0,0,1-.738.579,3.039,3.039,0,0,1-.353.291c.006.038.026.074.029.114a1.284,1.284,0,0,1-.873,1.349,2.858,2.858,0,0,1-1.551.276l-.936.7a1.6,1.6,0,0,1-.6.448,1.492,1.492,0,0,1-1.381.57l-.12.089a1.225,1.225,0,0,1-.4,1.143,1.254,1.254,0,0,1-.612.29,1.28,1.28,0,0,1-.853,1.32,1.3,1.3,0,0,1-.614.457,3.011,3.011,0,0,1-2.06.19l-.413.31h0l-.755.566-.758.568a1.237,1.237,0,0,1-.425,1.169,1.27,1.27,0,0,1-.389.216,1.463,1.463,0,0,1-.208.233,1.22,1.22,0,0,1-.968.27A1.235,1.235,0,0,1,.212,34.015a1.441,1.441,0,0,1,.528-.608,1.608,1.608,0,0,1,.535-.739l1.386-1.039.364-.273.658-.522a2.332,2.332,0,0,1,.826-.684A1.893,1.893,0,0,1,5.7,29.53a1.425,1.425,0,0,1,.805-.852,1.544,1.544,0,0,1,.819-.553L8.688,27.1a2.552,2.552,0,0,1,.472-.354l.124-.093a2.284,2.284,0,0,1,.5-.367l.292-.219.666-.529a2.014,2.014,0,0,1,1.4-.855,1.722,1.722,0,0,1,.141-.207,1.483,1.483,0,0,1,.554-.4,1.467,1.467,0,0,1,.956-.8l.736-.555a1.441,1.441,0,0,1,.583-.476c.014-.006.035-.009.049-.015a1.437,1.437,0,0,1,.55-.434c.019-.008.048-.013.067-.02a1.966,1.966,0,0,1,1.277-.534,1.45,1.45,0,0,1,.217-.108l1.554-1.165c.022-.017.044-.028.066-.043l.066-.05c.008-.006.011-.015.019-.021l.041-.029a1.608,1.608,0,0,1,.325-.644,1.829,1.829,0,0,1,1.32-.59c.114-.078.23-.149.348-.219.06-.035.138-.081.2-.121a1.771,1.771,0,0,1,.962-1.3,1.594,1.594,0,0,1,.527-.108,1.626,1.626,0,0,1,.252-.476,1.765,1.765,0,0,1,1.519-.559c.055-.046.122-.109.172-.157.1-.093.2-.186.309-.273a1.81,1.81,0,0,1,.934-1.1,1.53,1.53,0,0,1,.708-.131l.042-.031c.01-.008.023-.01.034-.019l.059-.044c.02-.016.036-.034.058-.05l1.566-1.176a1.692,1.692,0,0,1,.149-.157,1.94,1.94,0,0,1,.873-1.086c.014-.017.026-.045.04-.061a1.432,1.432,0,0,1,.57-.405c.009-.013.019-.031.028-.043a1.442,1.442,0,0,1,.635-.433l.72-.54a1.448,1.448,0,0,1,1.04-.7,1.49,1.49,0,0,1,.54-.418A1.74,1.74,0,0,1,33.19,8.9a2.046,2.046,0,0,1,1.257-1.113l.965-.723a2.669,2.669,0,0,1,.527-.4l.07-.051a2.674,2.674,0,0,1,.528-.4l1.3-.97a1.519,1.519,0,0,1,.769-.646,1.415,1.415,0,0,1,1.046-.532,1.873,1.873,0,0,1,.906-.948,2.4,2.4,0,0,1,.954-.631L43.9.7A1.549,1.549,0,0,1,44.75.4a1.431,1.431,0,0,1,.737-.341A1.21,1.21,0,0,1,45.865,0a1.233,1.233,0,0,1,1.011,1.942Z" transform="translate(0 0)" fill="#1a1311"/>
    <path id="パス_92" data-name="パス 92" d="M30.226,2.507a1.257,1.257,0,0,1-.2.224,1.388,1.388,0,0,1-.181.428,1.224,1.224,0,0,1-1.068.539h-.028L27.8,5.34l0,.006-.254.439a2.994,2.994,0,0,1,.041,2.107,1.369,1.369,0,0,1-.354.572c-.008.024-.012.051-.021.077a1.38,1.38,0,0,1-1.2.981,1.272,1.272,0,0,1-.209.622,1.217,1.217,0,0,1-1.072.546h-.027l-.078.132a1.508,1.508,0,0,1-.4,1.438l-.007.013a1.635,1.635,0,0,1-.366.634l-.586,1.01a2.89,2.89,0,0,1-.1,1.605,1.38,1.38,0,0,1-1.221,1c-.041,0-.08-.015-.121-.017a3.25,3.25,0,0,1-.25.391,3.456,3.456,0,0,1-.486.8c0,.035,0,.079,0,.109a1.4,1.4,0,0,1-.424.774,1.4,1.4,0,0,1-.074.189,1.514,1.514,0,0,1-.391,1.211l-.059.1-.013.024a1.256,1.256,0,0,1-.058.153,1.409,1.409,0,0,1-.146,1,1.282,1.282,0,0,1-.23.253,1.354,1.354,0,0,1-.144.393,1.377,1.377,0,0,1-.951.667c-.044.008-.1.013-.146.02.019.046.042.094.057.139A1.368,1.368,0,0,1,18.4,23.88a1.409,1.409,0,0,1-.828.635c-.027.044-.052.088-.08.132l-.063.107a1.5,1.5,0,0,1-.869.952,1.489,1.489,0,0,1-.161.325,1.471,1.471,0,0,1-.229.39,1.518,1.518,0,0,1-.393,1.189l-.057.1-.079.139a1.412,1.412,0,0,1-.14,1.039,1.365,1.365,0,0,1-.95.667c-.045.009-.1.014-.146.02.019.045.041.093.056.136a1.369,1.369,0,0,1-.106,1.157,1.294,1.294,0,0,1-.268.319,1.282,1.282,0,0,1-.1.326,1.4,1.4,0,0,1-.788.621,1.438,1.438,0,0,1-.122.148h0l-.063.106a1.5,1.5,0,0,1-.818.929,1.5,1.5,0,0,1-.157.185,1.438,1.438,0,0,1-.468.743c-.024.021-.066.039-.094.059a3.49,3.49,0,0,1-.45.822,3.491,3.491,0,0,1-.212.407c.021.034.053.059.073.1a1.287,1.287,0,0,1-.274,1.58,2.9,2.9,0,0,1-1.321.863L8.7,39.08a1.6,1.6,0,0,1-.375.648A1.5,1.5,0,0,1,7.28,40.794l-.076.129a1.234,1.234,0,0,1,.074,1.226,1.257,1.257,0,0,1-.44.486,1.283,1.283,0,0,1-.268,1.551,1.3,1.3,0,0,1-.383.658,3.039,3.039,0,0,1-1.823.985l-.26.449h0l-.946,1.634a1.228,1.228,0,0,1-.208,1.6,1.3,1.3,0,0,1-.092.276,1.224,1.224,0,0,1-.786.637A1.234,1.234,0,0,1,.022,49.286a1.438,1.438,0,0,1,.248-.772,1.612,1.612,0,0,1,.2-.889l1.5-2.63a2.34,2.34,0,0,1,.493-.958A1.89,1.89,0,0,1,3.318,43a1.43,1.43,0,0,1,.407-1.1,1.553,1.553,0,0,1,.534-.825L5.111,39.6a2.568,2.568,0,0,1,.27-.464l.1-.181A2.407,2.407,0,0,1,5.8,38.43l.189-.327.406-.746a2.022,2.022,0,0,1,.956-1.337,1.81,1.81,0,0,1,.048-.246,1.5,1.5,0,0,1,.353-.588,1.464,1.464,0,0,1,.568-1.107l.458-.8a1.442,1.442,0,0,1,.349-.669c.01-.01.028-.021.038-.031a1.451,1.451,0,0,1,.335-.615c.015-.015.039-.03.056-.046a1.924,1.924,0,0,1,.966-.99,1.561,1.561,0,0,1,.158-.185l.973-1.681c.013-.022.027-.039.041-.06s.031-.053.046-.08c0-.007,0-.016.008-.023l.026-.043a1.623,1.623,0,0,1,.047-.72,1.833,1.833,0,0,1,.983-1.061c.074-.115.153-.226.233-.337.043-.056.1-.13.137-.19a1.769,1.769,0,0,1,.376-1.575,1.611,1.611,0,0,1,.441-.305,1.584,1.584,0,0,1,.045-.536,1.772,1.772,0,0,1,1.178-1.11c.032-.065.07-.147.1-.211.056-.127.114-.251.176-.371a1.81,1.81,0,0,1,.429-1.381,1.579,1.579,0,0,1,.6-.4l.026-.045c.007-.013.019-.022.027-.035l.031-.055c.013-.024.022-.049.036-.073l.984-1.7a1.539,1.539,0,0,1,.072-.2,1.93,1.93,0,0,1,.377-1.342c.006-.023.007-.053.013-.074a1.425,1.425,0,0,1,.366-.6c0-.015,0-.035.008-.049a1.441,1.441,0,0,1,.413-.644l.453-.783A1.451,1.451,0,0,1,20,14.019a1.507,1.507,0,0,1,.333-.6,1.78,1.78,0,0,1,.192-.166,2.049,2.049,0,0,1,.721-1.515l.6-1.045a2.59,2.59,0,0,1,.331-.57l.049-.085a2.638,2.638,0,0,1,.326-.563l.05-.087.139-.24h0l.622-1.074a1.52,1.52,0,0,1,.455-.895,1.416,1.416,0,0,1,.753-.9,1.882,1.882,0,0,1,.465-1.233,2.4,2.4,0,0,1,.625-.944l.456-.788,1.043-1.8A1.574,1.574,0,0,1,27.829.9a1.432,1.432,0,0,1,.543-.6,1.234,1.234,0,0,1,2.018,1.18A1.239,1.239,0,0,1,30.226,2.507Z" transform="translate(30.358 13.528)" fill="#1a1311"/>
    <path id="パス_93" data-name="パス 93" d="M6.835,3.024v0L6.689,4.787l0,.014a2.008,2.008,0,0,1,0,1.032,1.693,1.693,0,0,1-.24,1.045,1.376,1.376,0,0,1,.1.26A1.328,1.328,0,0,1,6.51,7.9a1.423,1.423,0,0,1-.153.865l-.1,1.267a2.154,2.154,0,0,1-.041.5l-.01.121a2.178,2.178,0,0,1-.046.518l-.077.92,0,.015A1.779,1.779,0,0,1,5.859,13.6c.009.043.028.092.034.131a1.389,1.389,0,0,1-.03.517,1.752,1.752,0,0,1,.071.194A1.4,1.4,0,0,1,5.8,15.45l-.051.613a1.342,1.342,0,0,1-.02.71l-.011.022a1.349,1.349,0,0,1-.041.6c-.008.028-.029.059-.04.087a1.7,1.7,0,0,1-.467,1.2c-.009.023-.012.049-.022.072L5.021,20.3l-.007.064a1.477,1.477,0,0,1,.269.667,1.623,1.623,0,0,1-.441,1.3c-.014.086-.031.172-.051.258l0,.023a1.592,1.592,0,0,1,.334,1.464,1.49,1.49,0,0,1-.185.367,1.49,1.49,0,0,1,.122.393,1.594,1.594,0,0,1-.572,1.386l0,.024c0,.088.006.175.006.263a1.61,1.61,0,0,1,.221,1.354,1.5,1.5,0,0,1-.376.613c0,.022,0,.043,0,.066L4.2,30.1c0,.021,0,.043.007.064a1.685,1.685,0,0,1,.263,1.26c.007.03.022.066.026.1a1.334,1.334,0,0,1-.058.59c0,.008.006.02.007.028a1.332,1.332,0,0,1-.1.708l-.05.607a1.393,1.393,0,0,1-.036,1.02,1.477,1.477,0,0,1-.1.176,1.409,1.409,0,0,1-.057.516c-.013.041-.039.087-.058.13a1.858,1.858,0,0,1-.03,1.523l-.078.929a2.182,2.182,0,0,1-.042.518l-.009.1a2.091,2.091,0,0,1-.042.5L3.742,40.14a1.428,1.428,0,0,1,.008.878,1.349,1.349,0,0,1-.1.759,1.511,1.511,0,0,1-.142.248A1.765,1.765,0,0,1,3.572,43.1a2.132,2.132,0,0,1-.161,1.021l-.1,1.243L3.212,46.5a1.45,1.45,0,0,1-.335.805,1.4,1.4,0,0,1-.263.679,1.234,1.234,0,0,1-2.25-.159,1.254,1.254,0,0,1-.331-1.056,1.328,1.328,0,0,1,.056-.215,1.3,1.3,0,0,1,0-.4,1.221,1.221,0,0,1,.758-.939L.885,44.7l.073-.882v-.007l.021-.253a2.642,2.642,0,0,1-.943-1.635,1.34,1.34,0,0,1,.038-.766,1.3,1.3,0,0,1,.057-.629,1.309,1.309,0,0,1,.531-.6,1.422,1.422,0,0,1-.023-.464,1.221,1.221,0,0,1,.652-.877,1.394,1.394,0,0,1-.179-1.221,1.482,1.482,0,0,1,.065-.687l.065-.774a2.467,2.467,0,0,1-.6-1.287,1.262,1.262,0,0,1,.757-1.5l.017,0a2.15,2.15,0,0,1,.038-.259,2.657,2.657,0,0,1,.064-.663c-.006-.021-.02-.045-.026-.065a1.364,1.364,0,0,1,.03-.809,1.453,1.453,0,0,1-.175-1.235v0c0-.016,0-.035,0-.052a1.346,1.346,0,0,1-.316-.973,1.144,1.144,0,0,1,.067-.295,1.27,1.27,0,0,1-.015-.323,1.467,1.467,0,0,1,.491-.913,1.469,1.469,0,0,1-.333-.983,1.333,1.333,0,0,1,.478-.909l0-.048a1.44,1.44,0,0,1,.339-1.146,1.243,1.243,0,0,1,.031-.236,1.327,1.327,0,0,1,.008-.243,1.454,1.454,0,0,1-.145-1.179l0-.049a1.355,1.355,0,0,1-.321-.981,1.48,1.48,0,0,1,.492-.912,1.47,1.47,0,0,1-.334-.982,1.362,1.362,0,0,1,.068-.315,1.174,1.174,0,0,1-.017-.3,1.34,1.34,0,0,1,.471-.9c.006-.021.007-.043.013-.063a1.438,1.438,0,0,1,.376-1.186,1.369,1.369,0,0,1,.106-.8c.008-.019.025-.039.036-.059a2.647,2.647,0,0,1,.045-.664A2.429,2.429,0,0,1,2.9,15.3l-.022-.01a1.281,1.281,0,0,1-.58-.832,1.348,1.348,0,0,1,.086-.764,2.494,2.494,0,0,1,.8-1.172l.028-.338.036-.436a1.487,1.487,0,0,1,.049-.693,1.394,1.394,0,0,1,.376-1.168,1.23,1.23,0,0,1-.494-.973,1.317,1.317,0,0,1,.1-.457A1.26,1.26,0,0,1,2.86,7.78a1.323,1.323,0,0,1,.051-.63A1.357,1.357,0,0,1,3,6.4a2.67,2.67,0,0,1,1.2-1.46l.022-.262h0l.115-1.381a1.223,1.223,0,0,1-.593-1.057,1.264,1.264,0,0,1,.072-.4,1.358,1.358,0,0,1-.02-.214,1.212,1.212,0,0,1,.491-.97A1.233,1.233,0,0,1,5.37,0c.038,0,.075,0,.113,0a1.235,1.235,0,0,1,1.06.838,1.412,1.412,0,0,1,.147.713,1.454,1.454,0,0,1,.2.852Z" transform="translate(75.646 21.822)" fill="#1a1311"/>
  </g>
</svg>
