<svg xmlns="http://www.w3.org/2000/svg" width="75.71" height="105.061" viewBox="0 0 75.71 105.061">
  <g id="グループ_227" data-name="グループ 227" transform="matrix(0.819, -0.574, 0.574, 0.819, -968.534, 301.708)">
    <path id="パス_91" data-name="パス 91" d="M969.932,399.548a1.234,1.234,0,0,0-.548-.871,1.316,1.316,0,0,0-.275-.131,1.338,1.338,0,0,0-.324-.317,1.22,1.22,0,0,0-1.226-.072l-1.212-.908-.717-.539a3.031,3.031,0,0,0-.782-1.946,1.367,1.367,0,0,0-.557-.4c-.016-.016-.027-.037-.043-.055a1.384,1.384,0,0,0-1.493-.439,1.354,1.354,0,0,0-.431-.491,1.222,1.222,0,0,0-1.227-.071l-.123-.092a1.5,1.5,0,0,0-.933-1.167l-.016-.013a1.63,1.63,0,0,0-.581-.435l-.933-.7a2.9,2.9,0,0,0-.72-1.432,1.379,1.379,0,0,0-1.516-.442c-.038.015-.068.045-.1.063a3.252,3.252,0,0,0-.378-.259,3.571,3.571,0,0,0-.764-.546c-.016-.03-.03-.073-.048-.1a1.427,1.427,0,0,0-.68-.55,1.442,1.442,0,0,0-.169-.183,1.525,1.525,0,0,0-.819-.917l-.1-.075-.026-.02a1.339,1.339,0,0,0-.106-.11,1.41,1.41,0,0,0-.528-.866,1.345,1.345,0,0,0-.311-.143,1.321,1.321,0,0,0-.285-.305,1.365,1.365,0,0,0-1.136-.241c-.044.009-.1.026-.143.039,0-.049,0-.1,0-.145a1.372,1.372,0,0,0-.548-1.024,1.411,1.411,0,0,0-1.015-.262l-.125-.091-.1-.074a1.5,1.5,0,0,0-1.135-.533,1.413,1.413,0,0,0-.354-.267,3.018,3.018,0,0,1-1.149-1.178l-.1-.074-.123-.1a1.421,1.421,0,0,0-.536-.9,1.37,1.37,0,0,0-1.135-.241c-.045.01-.1.027-.142.039,0-.049,0-.1,0-.149a1.365,1.365,0,0,0-.551-1.02,1.282,1.282,0,0,0-.37-.188,1.354,1.354,0,0,0-.226-.261,1.412,1.412,0,0,0-.968-.261,1.383,1.383,0,0,0-.168-.089l-.1-.074a1.49,1.49,0,0,0-1.161-.535,1.33,1.33,0,0,0-.172-.092,1.4,1.4,0,0,0-.722-.515c-.029-.009-.074-.009-.108-.017a3.5,3.5,0,0,0-.738-.579,3.039,3.039,0,0,0-.353-.291c.006-.038.026-.074.029-.114a1.284,1.284,0,0,0-.873-1.349,2.858,2.858,0,0,0-1.551-.276l-.936-.7a1.6,1.6,0,0,0-.6-.448,1.492,1.492,0,0,0-1.381-.57l-.12-.089a1.225,1.225,0,0,0-.4-1.143,1.254,1.254,0,0,0-.612-.29,1.28,1.28,0,0,0-.853-1.32,1.3,1.3,0,0,0-.614-.457,3.011,3.011,0,0,0-2.06-.19l-.413-.31h0l-.755-.566-.758-.568a1.237,1.237,0,0,0-.425-1.169,1.27,1.27,0,0,0-.389-.216,1.463,1.463,0,0,0-.208-.233,1.22,1.22,0,0,0-.968-.27,1.235,1.235,0,0,0-1.431,1.858,1.441,1.441,0,0,0,.528.608,1.608,1.608,0,0,0,.535.739l1.386,1.039.364.273.658.522a2.332,2.332,0,0,0,.826.684,1.893,1.893,0,0,0,1.194.62,1.425,1.425,0,0,0,.805.852,1.544,1.544,0,0,0,.819.553l1.358,1.025a2.552,2.552,0,0,0,.472.354l.124.093a2.284,2.284,0,0,0,.5.367l.292.219.666.529a2.014,2.014,0,0,0,1.4.855,1.722,1.722,0,0,0,.141.207,1.483,1.483,0,0,0,.554.4,1.467,1.467,0,0,0,.956.8l.736.555a1.441,1.441,0,0,0,.583.476c.014.006.035.009.049.015a1.437,1.437,0,0,0,.55.434c.019.008.048.013.067.02a1.966,1.966,0,0,0,1.277.534,1.45,1.45,0,0,0,.217.108l1.554,1.165c.022.017.044.028.066.043l.066.05c.008.006.011.015.019.021l.041.029a1.608,1.608,0,0,0,.325.644,1.829,1.829,0,0,0,1.32.59c.114.078.23.149.348.219.06.035.138.081.2.121a1.771,1.771,0,0,0,.962,1.3,1.594,1.594,0,0,0,.527.108,1.626,1.626,0,0,0,.252.476,1.765,1.765,0,0,0,1.519.559c.055.046.122.109.172.157.1.093.2.186.309.273a1.81,1.81,0,0,0,.934,1.1,1.53,1.53,0,0,0,.708.131l.042.031c.01.008.023.01.034.019l.059.044c.02.016.036.034.058.05l1.566,1.176a1.692,1.692,0,0,0,.149.157,1.94,1.94,0,0,0,.873,1.086c.014.017.026.045.04.061a1.432,1.432,0,0,0,.57.405c.009.013.019.031.028.043a1.442,1.442,0,0,0,.635.433l.72.54a1.448,1.448,0,0,0,1.04.7,1.49,1.49,0,0,0,.54.418,1.74,1.74,0,0,0,.241.078A2.046,2.046,0,0,0,957.5,393.7l.965.723a2.669,2.669,0,0,0,.527.4l.07.051a2.674,2.674,0,0,0,.528.4l1.3.97a1.519,1.519,0,0,0,.769.646,1.415,1.415,0,0,0,1.046.532,1.873,1.873,0,0,0,.906.948,2.4,2.4,0,0,0,.954.631l2.389,1.791a1.549,1.549,0,0,0,.854.3,1.431,1.431,0,0,0,.737.341,1.21,1.21,0,0,0,.378.059,1.233,1.233,0,0,0,1.011-1.942Z" transform="translate(0 4.779)" fill="#1a1311"/>
    <path id="パス_92" data-name="パス 92" d="M979.437,389.378a1.257,1.257,0,0,0-.2-.224,1.388,1.388,0,0,0-.181-.428,1.224,1.224,0,0,0-1.068-.539h-.028l-.951-1.642,0-.006-.254-.439a2.994,2.994,0,0,0,.041-2.107,1.369,1.369,0,0,0-.354-.572c-.008-.024-.012-.051-.021-.077a1.38,1.38,0,0,0-1.2-.981,1.272,1.272,0,0,0-.209-.622,1.217,1.217,0,0,0-1.072-.546h-.027l-.078-.132a1.508,1.508,0,0,0-.4-1.438l-.007-.013a1.635,1.635,0,0,0-.366-.634l-.586-1.01a2.89,2.89,0,0,0-.1-1.605,1.38,1.38,0,0,0-1.221-1c-.041,0-.08.015-.121.017a3.25,3.25,0,0,0-.25-.391,3.456,3.456,0,0,0-.486-.8c0-.035,0-.079,0-.109a4.284,4.284,0,0,1-.5-.963,1.514,1.514,0,0,0-.391-1.211l-.059-.1-.013-.024a1.256,1.256,0,0,0-.058-.153,1.409,1.409,0,0,0-.146-1,1.282,1.282,0,0,0-.23-.253,1.354,1.354,0,0,0-.144-.393,1.377,1.377,0,0,0-.951-.667c-.044-.008-.1-.013-.146-.02.019-.046.042-.094.057-.139a1.368,1.368,0,0,0-.108-1.155,1.409,1.409,0,0,0-.828-.635c-.027-.044-.052-.088-.08-.132l-.063-.107a2.973,2.973,0,0,1-1.031-1.277,1.471,1.471,0,0,0-.229-.39,1.518,1.518,0,0,0-.393-1.189l-.057-.1-.079-.139a1.412,1.412,0,0,0-.14-1.039,1.365,1.365,0,0,0-.95-.667c-.045-.009-.1-.014-.146-.02.019-.045.041-.093.056-.136a1.369,1.369,0,0,0-.106-1.157.983.983,0,0,1-.373-.645,1.4,1.4,0,0,0-.788-.621,1.438,1.438,0,0,0-.122-.148h0l-.063-.106a39.255,39.255,0,0,1-.975-1.113,1.438,1.438,0,0,0-.468-.743c-.024-.021-.066-.039-.094-.059a33.716,33.716,0,0,1-.663-1.229c.021-.034.053-.059.073-.1a1.287,1.287,0,0,0-.274-1.58,2.9,2.9,0,0,0-1.321-.863l-.584-1.007a1.6,1.6,0,0,0-.375-.648,1.5,1.5,0,0,0-1.047-1.067l-.076-.129a1.234,1.234,0,0,0,.074-1.226,1.257,1.257,0,0,0-.44-.486,1.283,1.283,0,0,0-.268-1.551,1.3,1.3,0,0,0-.383-.658,3.039,3.039,0,0,0-1.823-.985l-.26-.449h0l-.946-1.634a1.228,1.228,0,0,0-.208-1.6,1.3,1.3,0,0,0-.092-.276,1.446,1.446,0,0,0-2.837.5,1.438,1.438,0,0,0,.248.772,1.612,1.612,0,0,0,.2.889l1.5,2.63a2.34,2.34,0,0,0,.493.958,1.89,1.89,0,0,0,.855,1.034,1.43,1.43,0,0,0,.407,1.1,1.553,1.553,0,0,0,.534.825l.851,1.478a2.568,2.568,0,0,0,.27.464l.1.181a2.407,2.407,0,0,0,.311.525l.189.327.406.746a2.022,2.022,0,0,0,.956,1.337,1.81,1.81,0,0,0,.048.246,1.5,1.5,0,0,0,.353.588,1.464,1.464,0,0,0,.568,1.107l.458.8a1.442,1.442,0,0,0,.349.669c.01.01.028.021.038.031a1.451,1.451,0,0,0,.335.615c.015.015.039.03.056.046a1.924,1.924,0,0,0,.966.99,1.561,1.561,0,0,0,.158.185l.973,1.681c.013.022.027.039.041.06s.031.053.046.08c0,.007,0,.016.008.023l.026.043a1.623,1.623,0,0,0,.047.72,1.833,1.833,0,0,0,.983,1.061c.074.115.153.226.233.337.043.056.1.13.137.19a1.769,1.769,0,0,0,.376,1.575,1.611,1.611,0,0,0,.441.305,1.584,1.584,0,0,0,.045.536,1.772,1.772,0,0,0,1.178,1.11c.032.065.07.147.1.211.056.127.114.251.176.371a1.81,1.81,0,0,0,.429,1.381,1.579,1.579,0,0,0,.6.4l.026.045c.007.013.019.022.027.035l.031.055c.013.024.022.049.036.073l.984,1.7a1.539,1.539,0,0,0,.072.2,1.93,1.93,0,0,0,.377,1.342c.006.023.007.053.013.074a1.425,1.425,0,0,0,.366.6c0,.015,0,.035.008.049a1.441,1.441,0,0,0,.413.644l.453.783a1.451,1.451,0,0,0,.681,1.05,1.507,1.507,0,0,0,.333.6,1.78,1.78,0,0,0,.192.166,2.049,2.049,0,0,0,.721,1.515l.6,1.045a2.59,2.59,0,0,0,.331.57l.049.085a2.638,2.638,0,0,0,.326.563l.05.087.139.24h0l.622,1.074a1.52,1.52,0,0,0,.455.895,1.416,1.416,0,0,0,.753.9,1.882,1.882,0,0,0,.465,1.233,2.4,2.4,0,0,0,.625.944l.456.788,1.043,1.8a1.574,1.574,0,0,0,.666.612,1.432,1.432,0,0,0,.543.6,1.544,1.544,0,0,0,1.854-2.2Z" transform="translate(4.203 0.856)" fill="#1a1311"/>
    <path id="パス_93" data-name="パス 93" d="M995.065,381.423v0l-.146-1.758,0-.014a2.008,2.008,0,0,0,0-1.032,1.693,1.693,0,0,0-.24-1.045,1.376,1.376,0,0,0,.1-.26,1.328,1.328,0,0,0-.031-.761,1.423,1.423,0,0,0-.153-.865l-.1-1.267a2.154,2.154,0,0,0-.041-.5l-.01-.121a2.178,2.178,0,0,0-.046-.518l-.077-.92,0-.015a1.779,1.779,0,0,0-.224-1.495c.009-.043.028-.092.034-.131a1.389,1.389,0,0,0-.03-.517,1.752,1.752,0,0,0,.071-.194,1.4,1.4,0,0,0-.134-1.01l-.051-.613a1.342,1.342,0,0,0-.02-.71l-.011-.022a1.349,1.349,0,0,0-.041-.6c-.008-.028-.029-.059-.04-.087a1.7,1.7,0,0,0-.467-1.2c-.009-.023-.012-.049-.022-.072l-.129-1.551-.007-.064a1.477,1.477,0,0,0,.269-.667,1.623,1.623,0,0,0-.441-1.3c-.014-.086-.031-.172-.051-.258l0-.023a1.592,1.592,0,0,0,.334-1.464.55.55,0,0,1-.063-.76,1.594,1.594,0,0,0-.572-1.386l0-.024c0-.088.006-.175.006-.263a1.61,1.61,0,0,0,.221-1.354,1.5,1.5,0,0,0-.376-.613c0-.022,0-.043,0-.066l-.13-1.556c0-.021,0-.043.007-.064a1.685,1.685,0,0,0,.264-1.26c.007-.03.022-.066.026-.1a1.334,1.334,0,0,0-.058-.59c0-.008.006-.02.007-.028a1.332,1.332,0,0,0-.1-.708l-.05-.607a1.393,1.393,0,0,0-.036-1.02,1.477,1.477,0,0,0-.1-.176,1.409,1.409,0,0,0-.057-.516c-.013-.041-.039-.087-.058-.13a1.858,1.858,0,0,0-.03-1.523l-.078-.929a2.182,2.182,0,0,0-.042-.518l-.009-.1a2.091,2.091,0,0,0-.042-.5l-.106-1.269a1.428,1.428,0,0,0,.008-.878,1.349,1.349,0,0,0-.1-.759,1.511,1.511,0,0,0-.142-.248,1.765,1.765,0,0,0,.059-1.072,2.132,2.132,0,0,0-.161-1.021l-.1-1.243-.094-1.136a1.45,1.45,0,0,0-.335-.805,1.4,1.4,0,0,0-.263-.679,1.234,1.234,0,0,0-2.25.159,1.254,1.254,0,0,0-.331,1.056,1.328,1.328,0,0,0,.056.215,1.3,1.3,0,0,0,0,.4,1.221,1.221,0,0,0,.758.939l.043.508.073.882v.007l.021.253a2.642,2.642,0,0,0-.943,1.635,1.34,1.34,0,0,0,.038.766,1.143,1.143,0,0,0,.587,1.226,1.422,1.422,0,0,0-.023.464,1.221,1.221,0,0,0,.652.877,1.394,1.394,0,0,0-.179,1.221,1.482,1.482,0,0,0,.065.687l.065.774a2.467,2.467,0,0,0-.6,1.287,1.262,1.262,0,0,0,.757,1.5l.017,0a2.15,2.15,0,0,0,.038.259,2.657,2.657,0,0,0,.064.663c-.006.021-.02.045-.026.065a1.364,1.364,0,0,0,.03.809,1.453,1.453,0,0,0-.175,1.235v0c0,.016,0,.035,0,.052a1.346,1.346,0,0,0-.316.973,1.144,1.144,0,0,0,.067.295,1.27,1.27,0,0,0-.015.323,1.3,1.3,0,0,1,.158,1.9,1.333,1.333,0,0,0,.478.909l0,.048A1.44,1.44,0,0,0,990.3,360a1.243,1.243,0,0,0,.031.236,1.327,1.327,0,0,0,.008.243,1.454,1.454,0,0,0-.145,1.179l0,.049a1.355,1.355,0,0,0-.321.981,1.3,1.3,0,0,1,.158,1.894,1.362,1.362,0,0,0,.068.315,1.174,1.174,0,0,0-.017.3,1.34,1.34,0,0,0,.471.9c.006.021.007.043.013.063a1.438,1.438,0,0,0,.376,1.186,1.369,1.369,0,0,0,.106.8c.008.019.025.039.036.059a2.647,2.647,0,0,0,.045.664,2.429,2.429,0,0,0,.006.262l-.022.01a1.281,1.281,0,0,0-.58.832,1.348,1.348,0,0,0,.086.764,2.494,2.494,0,0,0,.8,1.172l.028.338.036.436a1.487,1.487,0,0,0,.049.693,1.394,1.394,0,0,0,.376,1.168,1.23,1.23,0,0,0-.494.973,1.317,1.317,0,0,0,.1.457,1.26,1.26,0,0,0-.425.681,1.323,1.323,0,0,0,.051.63,1.357,1.357,0,0,0,.086.754,2.67,2.67,0,0,0,1.2,1.46l.022.262h0l.115,1.381a1.223,1.223,0,0,0-.593,1.057,1.264,1.264,0,0,0,.072.4,1.358,1.358,0,0,0-.02.214,1.212,1.212,0,0,0,.491.97,1.233,1.233,0,0,0,1.084.646c.038,0,.075,0,.113,0a1.235,1.235,0,0,0,1.06-.838,1.412,1.412,0,0,0,.147-.713,1.454,1.454,0,0,0,.2-.852Z" transform="translate(10.472)" fill="#1a1311"/>
  </g>
</svg>
