<svg id="グループ_1" data-name="グループ 1" xmlns="http://www.w3.org/2000/svg" width="86.864" height="112.707" viewBox="0 0 86.864 112.707">
  <path id="パス_1" data-name="パス 1" d="M276.5,241.6l-.044-.143c-.867-2.835-4.048-12.45-8.584-17.163-1.926-2-4.016-2.894-6.662-4.026-.943-.4-2.013-.861-3.214-1.425-.959-.451-1.923-.866-2.856-1.267-1.52-.655-2.956-1.273-4.242-1.984-.674-.5-1.791-3.207-2.329-4.509-.2-.477-.383-.926-.57-1.357a2.483,2.483,0,0,0-.118-.241l-.014-.022c-.036-.062-.073-.122-.113-.18-.019-.028-.041-.053-.061-.08s-.054-.072-.083-.106-.064-.07-.1-.1-.042-.045-.064-.067c-.038-.037-.078-.071-.119-.1-.019-.017-.038-.034-.058-.05-.041-.033-.084-.063-.127-.093-.021-.015-.042-.031-.064-.045-.041-.027-.084-.051-.127-.075-.026-.015-.051-.031-.078-.045s-.081-.038-.122-.057-.062-.029-.094-.042-.078-.028-.118-.042-.07-.025-.105-.036-.081-.021-.122-.031-.071-.018-.107-.025-.095-.015-.143-.021c-.03,0-.06-.009-.09-.012s-.075,0-.112-.006a39.265,39.265,0,0,1-.8-3.986v-.094a5.108,5.108,0,0,1,1.445-3.537c.608-.628,1.183-1.279,1.731-1.95.03.059.057.119.088.178,2.548,5.01,10.334,7.763,12.14,8.344a.4.4,0,0,0,.5-.257c.594-1.8,3.2-8.284,1.391-13.607a18.738,18.738,0,0,0-4.847-6.829c1.864-1.6,3.943-4.673,3.849-10.379a4.323,4.323,0,0,0-.5-2.024c0-.226.007-.46.013-.707.092-3.812.559-15.1-3.488-22.558a19.1,19.1,0,0,0-2.816-3.82h-.011c-4.5-4.616-12-7.64-20.494-7.64-9.516,0-17.784,3.793-21.98,9.368h-.02c-7.528,8.578-7.123,20.863-6.208,24.588a4.081,4.081,0,0,0-1.053,2.792c-.1,5.955,2.17,9.041,4.09,10.581a9.32,9.32,0,0,0,3.712,1.811,30.8,30.8,0,0,0,7.227,12.107,5.118,5.118,0,0,1,1.445,3.544v.07a38.756,38.756,0,0,1-.8,4h-.032l-.068,0c-.065.006-.129.016-.193.026l-.04.006c-.064.012-.128.028-.19.045l-.039.01c-.058.017-.115.037-.172.058l-.052.019c-.05.02-.1.043-.145.065-.024.011-.048.022-.072.034-.04.02-.078.044-.116.066s-.061.034-.09.053-.061.043-.091.064-.069.048-.1.074-.05.043-.075.065-.07.06-.1.092-.047.05-.071.075-.062.063-.091.1-.056.071-.083.107-.042.052-.061.08c-.039.055-.074.113-.108.172l-.019.031a2.465,2.465,0,0,0-.117.239c-.187.431-.373.882-.57,1.359-.538,1.3-1.655,4.006-2.33,4.509-1.289.713-2.727,1.332-4.249,1.988l-.332.143a2.454,2.454,0,0,0-1.19.519q-.663.293-1.329.6c-1.2.564-2.269,1.021-3.211,1.424-2.645,1.131-4.734,2.024-6.661,4.025-4.537,4.713-7.717,14.327-8.585,17.164l-.044.145a2.448,2.448,0,0,0,.728,2.555l.112.1c2.212,1.941,7.369,3.84,14.15,5.211a129.227,129.227,0,0,0,27.318,2.616l1.028,0,1.02,0a129.2,129.2,0,0,0,27.3-2.616c6.78-1.371,11.938-3.27,14.15-5.211l.113-.1A2.447,2.447,0,0,0,276.5,241.6ZM247.261,218.87q-2.936.42-5.878.669l-.749-5.554q1.812-.213,3.62-.528A18.188,18.188,0,0,0,247.261,218.87Zm7.662-35.3a42.836,42.836,0,0,0,.357-7.737,4.51,4.51,0,0,1,2.135.153.8.8,0,0,1,.023.2C257.506,180.332,256.22,182.471,254.923,183.575Zm-46.185-7.384a.819.819,0,0,1,.022-.2,4.958,4.958,0,0,1,2.307-.14,42.489,42.489,0,0,0,.381,7.882C210.089,182.681,208.666,180.54,208.738,176.191Zm6.877,8.44a34.7,34.7,0,0,1-.623-8.421c5.535-3.521,6.666-8.083,8.587-11.414,3.369,6.823,13.664,9.034,16.1,9.034,0,0-2.817-11.442-1.379-9.586,3.082,3.978,9.783,7.561,12.886,9.079a39.872,39.872,0,0,1-.45,11.307,27.386,27.386,0,0,1-7.044,13.259,9.086,9.086,0,0,0-2.553,6.29v.25l.014.167a39.406,39.406,0,0,0,.819,4.273,59.05,59.05,0,0,1-17.591,0,39.273,39.273,0,0,0,.82-4.294l.016-.183,0-.233a9.1,9.1,0,0,0-2.553-6.27A27.39,27.39,0,0,1,215.616,184.631Zm6.48,28.826a64.172,64.172,0,0,0,11.079.97c1.43,0,2.859-.053,4.288-.15l.739,5.483a102.55,102.55,0,0,1-19.222-.775A17.55,17.55,0,0,0,222.1,213.457Zm12.114,33.732-1.024,0-1.032,0a124.636,124.636,0,0,1-26.344-2.519,41.763,41.763,0,0,1-10.734-3.347c1.62-4.852,4.219-10.819,6.929-13.634,1.238-1.286,2.676-1.9,5.058-2.919.98-.419,2.091-.894,3.37-1.495.4-.187.806-.371,1.214-.551a108.151,108.151,0,0,0,21.055,2.08q3.836,0,7.67-.277l8.487,6.444,1.618,15.334A134.3,134.3,0,0,1,234.209,247.189Zm26.33-2.519c-2.368.479-4.649.881-6.908,1.214l-1.681-15.93a1.591,1.591,0,0,0-.62-1.1l-6.273-4.763q4.685-.542,9.35-1.5c.506.222,1.012.448,1.506.68,1.28.6,2.391,1.077,3.372,1.5,2.384,1.019,3.823,1.635,5.06,2.919,2.709,2.815,5.309,8.781,6.929,13.634A41.79,41.79,0,0,1,260.54,244.67Z" transform="translate(-189.743 -139.377)"/>
  <circle id="楕円形_2" data-name="楕円形 2" cx="2.762" cy="2.762" r="2.762" transform="translate(48.794 94.401) rotate(-13.282)"/>
</svg>
